%TF.GenerationSoftware,Altium Limited,Altium Designer,24.6.1 (21)*%
G04 Layer_Physical_Order=1*
G04 Layer_Color=255*
%FSLAX45Y45*%
%MOMM*%
%TF.SameCoordinates,F35BE60C-E53C-40B9-8BD6-1E0088A18739*%
%TF.FilePolarity,Positive*%
%TF.FileFunction,Copper,L1,Top,Signal*%
%TF.Part,Single*%
G01*
G75*
%TA.AperFunction,Conductor*%
%ADD10C,0.30000*%
%TA.AperFunction,ConnectorPad*%
%ADD11R,1.70000X0.60000*%
%ADD12R,2.70000X1.00000*%
%TA.AperFunction,SMDPad,CuDef*%
%ADD13R,1.00000X0.66000*%
%ADD14R,1.40000X0.95000*%
%TA.AperFunction,ViaPad*%
%ADD15C,0.70000*%
D10*
X2413000Y647700D02*
G03*
X2398273Y653800I-14727J-14727D01*
G01*
X1768964Y651300D02*
G03*
X1775000Y653800I0J8536D01*
G01*
X1865400Y591800D02*
G03*
X1832587Y631481I-40400J0D01*
G01*
Y486119D02*
G03*
X1865400Y525800I-7587J39681D01*
G01*
X1371600Y651300D02*
X1768964D01*
X841800D02*
X1371600D01*
X786400Y595900D02*
X841800Y651300D01*
X646600Y595900D02*
X786400D01*
X2035000Y653800D02*
X2398273D01*
X2413000Y647700D02*
X2730500D01*
X2908300Y469900D02*
X3136900D01*
X2730500Y647700D02*
X2908300Y469900D01*
X646600Y470900D02*
X800100D01*
Y469900D02*
Y470900D01*
X2413000Y355600D02*
Y462700D01*
X1676400Y558800D02*
X1775000D01*
X1371600Y355600D02*
Y466300D01*
X3137900Y595900D02*
X3288300D01*
X3289300Y596900D01*
X3136900Y594900D02*
X3137900Y595900D01*
X1775000Y653800D02*
X1810000Y635800D01*
X1865400Y525800D02*
Y591800D01*
X1810000Y481800D02*
X1832587Y486118D01*
X1775000Y463800D02*
X1810000Y481800D01*
Y635800D02*
X1832587Y631481D01*
X3066900Y484900D02*
X3136900Y469900D01*
D11*
Y594900D02*
D03*
Y469900D02*
D03*
X646600Y470900D02*
D03*
Y595900D02*
D03*
D12*
X3456900Y779900D02*
D03*
Y284900D02*
D03*
X326600Y285900D02*
D03*
Y780900D02*
D03*
D13*
X2035000Y653800D02*
D03*
Y463800D02*
D03*
X1775000D02*
D03*
Y558800D02*
D03*
Y653800D02*
D03*
D14*
X2413000Y462700D02*
D03*
Y647700D02*
D03*
X1371600Y466300D02*
D03*
Y651300D02*
D03*
D15*
X800100Y469900D02*
D03*
X1371600Y355600D02*
D03*
X1663700Y558800D02*
D03*
X2413000Y342900D02*
D03*
X3289300Y596900D02*
D03*
%TF.MD5,187c3c6227eb6630cf3b9b3913d16f88*%
M02*
