%TF.GenerationSoftware,Altium Limited,Altium Designer,24.6.1 (21)*%
G04 Layer_Physical_Order=2*
G04 Layer_Color=16711680*
%FSLAX45Y45*%
%MOMM*%
%TF.SameCoordinates,F35BE60C-E53C-40B9-8BD6-1E0088A18739*%
%TF.FilePolarity,Positive*%
%TF.FileFunction,Copper,L2,Bot,Signal*%
%TF.Part,Single*%
G01*
G75*
%TA.AperFunction,ViaPad*%
%ADD15C,0.70000*%
G36*
X3706270Y1031733D02*
X3724133Y1013870D01*
X3733800Y990531D01*
Y977900D01*
Y114300D01*
Y105544D01*
X3730383Y88369D01*
X3723682Y72190D01*
X3713953Y57630D01*
X3701570Y45247D01*
X3687010Y35518D01*
X3670831Y28816D01*
X3653656Y25400D01*
X119495D01*
X104773Y28328D01*
X90906Y34072D01*
X78425Y42411D01*
X67811Y53025D01*
X59472Y65506D01*
X53728Y79373D01*
X50800Y94095D01*
Y101600D01*
Y863600D01*
Y881112D01*
X57633Y915462D01*
X71036Y947820D01*
X90494Y976941D01*
X115259Y1001706D01*
X144380Y1021164D01*
X176738Y1034567D01*
X211088Y1041400D01*
X3682931D01*
X3706270Y1031733D01*
D02*
G37*
%LPC*%
G36*
X3302000Y657016D02*
Y609600D01*
X3349416D01*
X3340505Y631114D01*
X3323514Y648105D01*
X3302000Y657016D01*
D02*
G37*
G36*
X3276600D02*
X3255086Y648105D01*
X3238095Y631114D01*
X3229184Y609600D01*
X3276600D01*
Y657016D01*
D02*
G37*
G36*
X1676400Y618916D02*
Y571500D01*
X1723816D01*
X1714905Y593014D01*
X1697914Y610005D01*
X1676400Y618916D01*
D02*
G37*
G36*
X1651000D02*
X1629486Y610005D01*
X1612495Y593014D01*
X1603584Y571500D01*
X1651000D01*
Y618916D01*
D02*
G37*
G36*
X3349416Y584200D02*
X3302000D01*
Y536784D01*
X3323514Y545695D01*
X3340505Y562686D01*
X3349416Y584200D01*
D02*
G37*
G36*
X3276600D02*
X3229184D01*
X3238095Y562686D01*
X3255086Y545695D01*
X3276600Y536784D01*
Y584200D01*
D02*
G37*
G36*
X1723816Y546100D02*
X1676400D01*
Y498684D01*
X1697914Y507595D01*
X1714905Y524586D01*
X1723816Y546100D01*
D02*
G37*
G36*
X1651000D02*
X1603584D01*
X1612495Y524586D01*
X1629486Y507595D01*
X1651000Y498684D01*
Y546100D01*
D02*
G37*
G36*
X812800Y530016D02*
Y482600D01*
X860216D01*
X851305Y504114D01*
X834314Y521105D01*
X812800Y530016D01*
D02*
G37*
G36*
X787400D02*
X765886Y521105D01*
X748895Y504114D01*
X739984Y482600D01*
X787400D01*
Y530016D01*
D02*
G37*
G36*
X860216Y457200D02*
X812800D01*
Y409784D01*
X834314Y418695D01*
X851305Y435686D01*
X860216Y457200D01*
D02*
G37*
G36*
X787400D02*
X739984D01*
X748895Y435686D01*
X765886Y418695D01*
X787400Y409784D01*
Y457200D01*
D02*
G37*
G36*
X1384300Y415716D02*
Y368300D01*
X1431716D01*
X1422805Y389814D01*
X1405814Y406805D01*
X1384300Y415716D01*
D02*
G37*
G36*
X1358900D02*
X1337386Y406805D01*
X1320395Y389814D01*
X1311484Y368300D01*
X1358900D01*
Y415716D01*
D02*
G37*
G36*
X2425700Y403016D02*
Y355600D01*
X2473116D01*
X2464205Y377114D01*
X2447214Y394105D01*
X2425700Y403016D01*
D02*
G37*
G36*
X2400300D02*
X2378786Y394105D01*
X2361795Y377114D01*
X2352884Y355600D01*
X2400300D01*
Y403016D01*
D02*
G37*
G36*
X1431716Y342900D02*
X1384300D01*
Y295484D01*
X1405814Y304395D01*
X1422805Y321386D01*
X1431716Y342900D01*
D02*
G37*
G36*
X1358900D02*
X1311484D01*
X1320395Y321386D01*
X1337386Y304395D01*
X1358900Y295484D01*
Y342900D01*
D02*
G37*
G36*
X2473116Y330200D02*
X2425700D01*
Y282784D01*
X2447214Y291695D01*
X2464205Y308686D01*
X2473116Y330200D01*
D02*
G37*
G36*
X2400300D02*
X2352884D01*
X2361795Y308686D01*
X2378786Y291695D01*
X2400300Y282784D01*
Y330200D01*
D02*
G37*
%LPD*%
D15*
X800100Y469900D02*
D03*
X1371600Y355600D02*
D03*
X1663700Y558800D02*
D03*
X2413000Y342900D02*
D03*
X3289300Y596900D02*
D03*
%TF.MD5,12cf2e3bc5d4779abe1b03b4136cb86c*%
M02*
