%TF.GenerationSoftware,Altium Limited,Altium Designer,24.6.1 (21)*%
G04 Layer_Color=8388736*
%FSLAX45Y45*%
%MOMM*%
%TF.SameCoordinates,F35BE60C-E53C-40B9-8BD6-1E0088A18739*%
%TF.FilePolarity,Negative*%
%TF.FileFunction,Soldermask,Top*%
%TF.Part,Single*%
G01*
G75*
%TA.AperFunction,ConnectorPad*%
%ADD11R,1.70000X0.60000*%
%ADD12R,2.70000X1.00000*%
%TA.AperFunction,SMDPad,CuDef*%
%ADD13R,1.00000X0.66000*%
%ADD14R,1.40000X0.95000*%
%TA.AperFunction,ViaPad*%
%ADD19C,0.90320*%
D11*
X3136900Y594900D02*
D03*
Y469900D02*
D03*
X646600Y470900D02*
D03*
Y595900D02*
D03*
D12*
X3456900Y779900D02*
D03*
Y284900D02*
D03*
X326600Y285900D02*
D03*
Y780900D02*
D03*
D13*
X2035000Y653800D02*
D03*
Y463800D02*
D03*
X1775000D02*
D03*
Y558800D02*
D03*
Y653800D02*
D03*
D14*
X2413000Y462700D02*
D03*
Y647700D02*
D03*
X1371600Y466300D02*
D03*
Y651300D02*
D03*
D19*
X800100Y469900D02*
D03*
X1371600Y355600D02*
D03*
X1663700Y558800D02*
D03*
X2413000Y342900D02*
D03*
X3289300Y596900D02*
D03*
%TF.MD5,6a07f83281e5c406487290196aa4b213*%
M02*
